<svg width="20" height="20" viewBox="0 0 20 20" fill="none" xmlns="http://www.w3.org/2000/svg">
<path d="M0.5 2C0.5 1.17157 1.17157 0.5 2 0.5H7.41177C8.24019 0.5 8.91177 1.17157 8.91177 2V8.91177H2C1.17157 8.91177 0.5 8.24019 0.5 7.41177V2Z" stroke="#98B43C"/>
<path d="M0.5 18C0.5 18.8284 1.17157 19.5 2 19.5H7.41177C8.24019 19.5 8.91177 18.8284 8.91177 18V11.0882H2C1.17157 11.0882 0.5 11.7598 0.5 12.5882V18Z" stroke="#98B43C"/>
<path d="M19.5 18C19.5 18.8284 18.8284 19.5 18 19.5H12.5882C11.7598 19.5 11.0882 18.8284 11.0882 18V11.0882H18C18.8284 11.0882 19.5 11.7598 19.5 12.5882V18Z" stroke="#98B43C"/>
<path d="M19.5 2C19.5 1.17157 18.8284 0.5 18 0.5H12.5882C11.7598 0.5 11.0882 1.17157 11.0882 2V8.91177H18C18.8284 8.91177 19.5 8.24019 19.5 7.41177V2Z" stroke="#98B43C"/>
</svg>
